# xmcd
#
# Track frame offsets:
#	150
#	19492
#	39665
#
# Disc length: 722 seconds
#
# Revision: 2
# Processed by: cddbd v1.5.2PL0 Copyright (c) Steve Scherf et al.
# Submitted via: EasyCDDAExtractor 2011.0.0.0
#
DISCID=2102d003
DTITLE=Mandalay - Deep Love
DYEAR=2000
DGENRE=Electronic
TTITLE0=Deep Love
TTITLE1=However Wrong
TTITLE2=Blame It on the Sun
EXTD=Submitted by ecto@cox.net
EXTT0=
EXTT1=
EXTT2=
PLAYORDER=
